<?xml version="1.0" standalone="no"?>
<!DOCTYPE svg PUBLIC "-//W3C//DTD SVG 20010904//EN"
 "http://www.w3.org/TR/2001/REC-SVG-20010904/DTD/svg10.dtd">
<svg version="1.0" xmlns="http://www.w3.org/2000/svg"
 width="300.000000pt" height="300.000000pt" viewBox="0 0 300.000000 300.000000"
 preserveAspectRatio="xMidYMid meet">
<metadata>
Created by potrace 1.14, written by Peter Selinger 2001-2017
</metadata>
<g transform="translate(0.000000,300.000000) scale(0.100000,-0.100000)"
fill="#000000" stroke="none">
<path d="M1418 2635 c-2 -2 -29 -5 -61 -9 -89 -8 -224 -45 -305 -82 -41 -19
-76 -34 -78 -34 -3 0 -38 -21 -77 -46 -96 -62 -199 -150 -263 -226 -29 -34
-104 -136 -104 -142 0 -2 -15 -30 -33 -63 -56 -100 -105 -244 -123 -363 -11
-79 -11 -253 2 -340 35 -241 151 -468 329 -643 46 -46 187 -157 199 -157 3 0
27 -13 53 -28 153 -90 353 -139 553 -136 115 1 147 5 237 24 128 28 311 106
385 164 15 12 48 37 74 56 182 134 363 417 400 624 3 16 6 32 8 35 9 14 19
123 20 216 2 86 -10 209 -27 280 -17 69 -20 81 -27 90 -4 6 -10 22 -14 37 -21
87 -120 252 -217 362 -59 67 -180 173 -227 200 -113 64 -145 80 -201 103 -37
14 -82 30 -101 35 -19 5 -44 11 -55 14 -60 15 -152 26 -242 29 -56 1 -104 1
-105 0z"/>
</g>
</svg>
